# xmcd
#
# Track frame offsets: 
#        150
#        8615
#        26332
#        50952
#        71902
#        91472
#        115852
#        135764
#        155884
#        171829
#        209153
#        217157
#        248187
#        263177
#        278537
#
# Disc length: 3830 seconds
#
# Revision: 1
# Processed by: cddbd v1.5.2PL0 Copyright (c) Steve Scherf et al.
# Submitted via: ExactAudioCopy v1.0b3
#
DISCID=e00ef40f
DTITLE=国府弘子 - ピアノ一丁！
DYEAR=2014
DGENRE=Jazz
TTITLE0=ピアノ一丁！のテーマ
TTITLE1=You Tune My Heart
TTITLE2=So In Love
TTITLE3=Somewhere
TTITLE4=組曲「ピアノテラピー」～１．独りの時間  I.Time On My Own
TTITLE5=組曲「ピアノテラピー」～２．眠りの森  II.The Forest In My Dreams
TTITLE6=組曲「ピアノテラピー」～３．瞑想  III.Meditation
TTITLE7=Success Moon Dance
TTITLE8=Golden Slumbers
TTITLE9=Rhapsody In Blue
TTITLE10=Blood Circulation
TTITLE11=Starland
TTITLE12=Happy
TTITLE13=Cosmos Avenue
TTITLE14=男はつらいよ
EXTD=YEAR: 2014
EXTT0=
EXTT1=
EXTT2=
EXTT3=
EXTT4=
EXTT5=
EXTT6=
EXTT7=
EXTT8=
EXTT9=
EXTT10=
EXTT11=
EXTT12=
EXTT13=
EXTT14=
PLAYORDER=
